<svg width="1440" height="1850" viewBox="0 0 1440 1850" fill="none" xmlns="http://www.w3.org/2000/svg">
<g clip-path="url(#clip0_7_76)">
<rect width="1440" height="1850" fill="white"/>
<path d="M-41.978 119.05V-87.6692L127.072 -212L365.142 -126.616H566.201L831.779 -163.316L1063.35 -4.5323L1307.42 -163.316L1508.48 -87.6692L1585 2870.81L-117 3279L-85.4907 1081.49L-41.978 163.988V119.05Z" fill="#426151" stroke="#82A585" stroke-width="5"/>
<path d="M979.5 330.5L1314 109.5L1445.5 179" stroke="#B6CEAE" stroke-width="5"/>
<path d="M985.5 237V222L1314.5 5L1448.5 72.5V237H985.5Z" fill="#B6CEAE" stroke="#B6CEAE" stroke-width="5"/>
<path d="M485 1513.5L137.579 1750.5L1.00003 1675.97" stroke="#B6CEAE" stroke-width="5"/>
<path d="M485 1498.5V1514.6L138.946 1747.5L-2.00002 1675.05L-2.00002 1498.5H485Z" fill="#B6CEAE" stroke="#B6CEAE" stroke-width="5"/>
<rect x="-9" y="106.5" width="1453" height="1564" fill="#B6CEAE"/>
<path d="M84 106.5V779.471C84 907.112 171 949.5 260 949.5C349 949.5 419 848.531 419 779.471V106.5" stroke="#7B5037" stroke-opacity="0.2" stroke-width="60"/>
<path d="M1351.64 1676.69L1357.6 934.665C1358.73 793.927 1272.11 746.491 1183.11 745.776C1094.11 745.062 1023.22 855.83 1022.61 931.976L1016.65 1674" stroke="#7B5037" stroke-opacity="0.2" stroke-width="60"/>
<path d="M948.5 95.5V608L518.5 1074V1695.5" stroke="#426151" stroke-width="60"/>
<path d="M966 1866L1120.5 1747H1443" stroke="#DCE7D9" stroke-width="4"/>
<path d="M1122 1747.5H297L139 1850L-24 1759L-9 1885H959L991 1850L1122 1747.5Z" fill="#DCE7D9" stroke="#DCE7D9" stroke-width="5"/>
<path d="M-5.57635 1005.48C25.9864 1004.68 57.388 1010.23 86.7614 1021.81C116.135 1033.39 142.88 1050.75 165.407 1072.87C187.934 1095 205.783 1121.42 217.892 1150.58C230.002 1179.74 236.124 1211.03 235.895 1242.61C235.667 1274.18 229.092 1305.38 216.562 1334.36C204.032 1363.34 185.803 1389.51 162.958 1411.3C140.113 1433.09 113.119 1450.07 83.5813 1461.22C54.0434 1472.37 22.5647 1477.47 -8.98308 1476.21L-6.35434 1410.3C16.3566 1411.21 39.0179 1407.54 60.282 1399.51C81.546 1391.48 100.979 1379.26 117.425 1363.57C133.87 1347.88 146.994 1329.05 156.014 1308.18C165.034 1287.32 169.767 1264.86 169.932 1242.13C170.096 1219.4 165.689 1196.87 156.971 1175.88C148.254 1154.89 135.405 1135.87 119.188 1119.94C102.971 1104.01 83.7169 1091.51 62.5712 1083.18C41.4256 1074.84 18.8199 1070.85 -3.90186 1071.42L-5.57635 1005.48Z" fill="#7B5037" fill-opacity="0.2"/>
<path d="M1444.84 734.584C1413.46 735.276 1382.27 729.691 1353.08 718.156C1323.89 706.621 1297.31 689.369 1274.88 667.413C1252.46 645.457 1234.65 619.241 1222.5 590.305C1210.35 561.369 1204.11 530.297 1204.14 498.914C1204.17 467.531 1210.47 436.471 1222.68 407.558C1234.88 378.646 1252.74 352.464 1275.21 330.552C1297.68 308.639 1324.29 291.438 1353.5 279.96C1382.71 268.481 1413.92 262.956 1445.29 263.709L1443.71 329.655C1421.12 329.113 1398.66 333.091 1377.63 341.354C1356.6 349.618 1337.44 362 1321.27 377.775C1305.09 393.549 1292.24 412.397 1283.45 433.211C1274.67 454.025 1270.13 476.385 1270.11 498.977C1270.08 521.57 1274.58 543.938 1283.32 564.769C1292.07 585.6 1304.89 604.473 1321.03 620.279C1337.18 636.084 1356.32 648.504 1377.33 656.808C1398.34 665.112 1420.8 669.133 1443.38 668.634L1444.84 734.584Z" fill="#7B5037" fill-opacity="0.2"/>
</g>
<defs>
<clipPath id="clip0_7_76">
<rect width="1440" height="1850" fill="white"/>
</clipPath>
</defs>
</svg>
