<svg width="65" height="52" viewBox="0 0 65 52" fill="none" xmlns="http://www.w3.org/2000/svg">
<path d="M28.535 26.1625L38.3825 25.3175L42.25 16.25L46.1175 25.3175L55.965 26.1625L48.49 32.63L50.7325 42.25L42.25 37.2775L33.7675 42.25L36.01 32.63L28.535 26.1625ZM65 13V45.5C65 49.1075 62.1075 52 58.5 52H6.5C4.77609 52 3.12279 51.3152 1.90381 50.0962C0.684819 48.8772 0 47.2239 0 45.5V6.5C0 4.77609 0.684819 3.12279 1.90381 1.90381C3.12279 0.684819 4.77609 0 6.5 0H26L32.5 6.5H58.5C60.2239 6.5 61.8772 7.18482 63.0962 8.40381C64.3152 9.62279 65 11.2761 65 13ZM58.5 13H6.5V45.5H58.5V13Z" fill="#424B61"/>
</svg>
